<svg width="137" height="168" viewBox="0 0 137 168" fill="none" xmlns="http://www.w3.org/2000/svg">
<path d="M117.5 17.8751C131.1 19.0751 135.5 18.8751 136.5 32.8751H68.5V0.375061H89.5C106 3.37506 85 15.8751 117.5 17.8751Z" fill="white"/>
<path d="M19.5 17.8751C5.90001 19.0751 1.5 18.8751 0.5 32.8751H68.5V0.375061H47.5C31 3.37506 52 15.8751 19.5 17.8751Z" fill="white"/>
<path d="M10.2962 53.6514L17.7421 161.151C17.8873 163.248 19.6307 164.875 21.7325 164.875H116.251C118.36 164.875 120.106 163.238 120.243 161.134L127.223 53.6342C127.373 51.3279 125.543 49.375 123.232 49.375H14.2866C11.9687 49.375 10.136 51.339 10.2962 53.6514Z" fill="white" stroke="white" stroke-width="5"/>
<path d="M69 62.375V150.375" stroke="black" stroke-width="11" stroke-linecap="round"/>
<path d="M108.198 65.4326L103.802 149.317" stroke="black" stroke-width="11" stroke-linecap="round"/>
<path d="M30 65.4326L34.3962 149.317" stroke="black" stroke-width="11" stroke-linecap="round"/>
</svg>
