<svg width="100" height="100" viewBox="0 0 100 100" fill="none" xmlns="http://www.w3.org/2000/svg">
<rect x="9.33317" y="9.33332" width="81.3333" height="81.3333" rx="22.6667" stroke="black" stroke-width="5.33333"/>
<mask id="path-2-inside-1_79_845" fill="white">
<path fill-rule="evenodd" clip-rule="evenodd" d="M6.6665 68V74.6667C6.6665 88.6579 18.0086 100 31.9998 100H67.9998C81.9911 100 93.3332 88.6579 93.3332 74.6667V68C93.3332 81.9912 81.9911 93.3333 67.9998 93.3333H31.9998C18.0086 93.3333 6.6665 81.9912 6.6665 68Z"/>
</mask>
<path d="M11.9998 74.6667V68H1.33317V74.6667H11.9998ZM31.9998 94.6667C20.9541 94.6667 11.9998 85.7124 11.9998 74.6667H1.33317C1.33317 91.6034 15.0631 105.333 31.9998 105.333V94.6667ZM67.9998 94.6667H31.9998V105.333H67.9998V94.6667ZM87.9998 74.6667C87.9998 85.7124 79.0455 94.6667 67.9998 94.6667V105.333C84.9366 105.333 98.6665 91.6034 98.6665 74.6667H87.9998ZM87.9998 68V74.6667H98.6665V68H87.9998ZM87.9998 68C87.9998 79.0457 79.0455 88 67.9998 88V98.6667C84.9366 98.6667 98.6665 84.9368 98.6665 68H87.9998ZM67.9998 88H31.9998V98.6667H67.9998V88ZM31.9998 88C20.9541 88 11.9998 79.0457 11.9998 68H1.33317C1.33317 84.9367 15.0631 98.6667 31.9998 98.6667V88Z" fill="black" mask="url(#path-2-inside-1_79_845)"/>
<path d="M33.5405 37.8311H37.3538C38.8719 37.8311 40.2896 37.0723 41.1317 35.8092L42.9764 33.0422C43.8185 31.779 45.2362 31.0203 46.7544 31.0203H53.2456C54.7637 31.0203 56.1815 31.779 57.0235 33.0422L58.8684 35.8092C59.7104 37.0723 61.1282 37.8311 62.6463 37.8311H66.4595C68.9672 37.8311 71 39.8639 71 42.3716V63.9392C71 66.4469 68.9672 68.4797 66.4595 68.4797H33.5405C31.0329 68.4797 29 66.4469 29 63.9392V42.3716C29 39.8639 31.0329 37.8311 33.5405 37.8311Z" stroke="black" stroke-width="4.54054" stroke-linecap="square" stroke-linejoin="round"/>
<path d="M57.3783 52.0203C57.3783 56.0952 54.0749 59.3987 50 59.3987C45.9251 59.3987 42.6216 56.0952 42.6216 52.0203C42.6216 47.9454 45.9251 44.6419 50 44.6419C54.0749 44.6419 57.3783 47.9454 57.3783 52.0203Z" stroke="black" stroke-width="4.54054" stroke-linecap="square" stroke-linejoin="round"/>
</svg>
