<svg width="190" height="190" viewBox="0 0 190 190" fill="none" xmlns="http://www.w3.org/2000/svg">
<path d="M36.2962 75.2764L43.7421 182.776C43.8873 184.873 45.6307 186.5 47.7325 186.5H142.251C144.36 186.5 146.106 184.863 146.243 182.759L153.223 75.2592C153.373 72.9529 151.543 71 149.232 71H40.2866C37.9687 71 36.136 72.964 36.2962 75.2764Z" fill="white" stroke="white" stroke-width="5"/>
<path d="M95 84V172" stroke="#00C774" stroke-width="11" stroke-linecap="round"/>
<path d="M134.198 87.0576L129.802 170.942" stroke="#00C774" stroke-width="11" stroke-linecap="round"/>
<path d="M56 87.0576L60.3962 170.942" stroke="#00C774" stroke-width="11" stroke-linecap="round"/>
<path d="M125.5 23.4997C94.2998 34.6991 72.8333 58.4997 66 68.9997H76L82 61.5C82.1667 62.8333 86.5 65.6 102.5 66C122.5 66.5 131 44 135.5 34C139.1 26 149.333 17 154 13.5C75 -7 67 35.5 70 49.4997C80 28 134 20.4487 125.5 23.4997Z" fill="white"/>
</svg>
