<svg width="123" height="181" viewBox="0 0 123 181" fill="none" xmlns="http://www.w3.org/2000/svg">
<path d="M3.2962 67.2664L10.7421 174.766C10.8873 176.863 12.6307 178.49 14.7325 178.49H109.251C111.36 178.49 113.106 176.853 113.243 174.749L120.223 67.2492C120.373 64.9429 118.543 62.99 116.232 62.99H7.28664C4.96869 62.99 3.13603 64.954 3.2962 67.2664Z" fill="white" stroke="white" stroke-width="5"/>
<path d="M62 75.99V163.99" stroke="#00C774" stroke-width="11" stroke-linecap="round"/>
<path d="M101.198 79.0476L96.802 162.932" stroke="#00C774" stroke-width="11" stroke-linecap="round"/>
<path d="M23 79.0476L27.3962 162.932" stroke="#00C774" stroke-width="11" stroke-linecap="round"/>
<path d="M92.5 15.4897C61.2998 26.689 39.8333 50.4897 33 60.9897H43L49 53.49C49.1667 54.8233 53.5 57.59 69.5 57.99C89.5 58.49 98 35.99 102.5 25.99C106.1 17.99 116.333 8.99002 121 5.49004C42 -15.01 34 27.4899 37 41.4897C47 19.99 101 12.4387 92.5 15.4897Z" fill="white"/>
</svg>
