<svg width="150" height="150" viewBox="0 0 150 150" fill="none" xmlns="http://www.w3.org/2000/svg">
<rect x="14" y="14" width="122" height="122" rx="34" stroke="#2A88EC" stroke-width="8"/>
<mask id="path-2-inside-1_73_189" fill="white">
<path fill-rule="evenodd" clip-rule="evenodd" d="M10 102V112C10 132.987 27.0132 150 48 150H102C122.987 150 140 132.987 140 112V102C140 122.987 122.987 140 102 140H48C27.0132 140 10 122.987 10 102Z"/>
</mask>
<path d="M18 112V102H2V112H18ZM48 142C31.4315 142 18 128.569 18 112H2C2 137.405 22.5949 158 48 158V142ZM102 142H48V158H102V142ZM132 112C132 128.569 118.569 142 102 142V158C127.405 158 148 137.405 148 112H132ZM132 102V112H148V102H132ZM132 102C132 118.569 118.569 132 102 132V148C127.405 148 148 127.405 148 102H132ZM102 132H48V148H102V132ZM48 132C31.4315 132 18 118.569 18 102H2C2 127.405 22.5949 148 48 148V132Z" fill="#2A88EC" mask="url(#path-2-inside-1_73_189)"/>
<path fill-rule="evenodd" clip-rule="evenodd" d="M52.9966 111.958L49.8615 66.6953C49.7941 65.7217 50.5657 64.8947 51.5417 64.8947H97.4134C98.3865 64.8947 99.1571 65.717 99.094 66.6881L96.1549 111.951C96.0973 112.837 95.362 113.526 94.4742 113.526H54.6768C53.7918 113.526 53.0578 112.841 52.9966 111.958ZM76.8949 70.3684C76.8949 69.0894 75.8581 68.0526 74.5791 68.0526C73.3001 68.0526 72.2633 69.0894 72.2633 70.3684V107.421C72.2633 108.7 73.3001 109.737 74.5791 109.737C75.8581 109.737 76.8949 108.7 76.8949 107.421V70.3684ZM91.2047 69.3432C92.4819 69.4101 93.463 70.4998 93.3961 71.777L91.5451 107.097C91.4781 108.374 90.3885 109.355 89.1113 109.288C87.834 109.221 86.8529 108.132 86.9198 106.855L88.7709 71.5346C88.8378 70.2574 89.9275 69.2763 91.2047 69.3432ZM60.4703 71.5346C60.4034 70.2574 59.3137 69.2763 58.0365 69.3432C56.7593 69.4101 55.7782 70.4998 55.8451 71.777L57.6961 107.097C57.7631 108.374 58.8527 109.355 60.13 109.288C61.4072 109.221 62.3883 108.132 62.3214 106.855L60.4703 71.5346Z" fill="#2A88EC"/>
<path d="M81.3157 54.2526C78.4526 46.1684 71.2104 38.8842 71.2104 38.6737C71.2105 38.4631 86.1578 38.6737 88.4736 39.0947C90.5789 40.1473 93.8031 47.8092 94.9999 47.9368C96.1968 48.0645 99.6315 45.4105 99.842 45.4105C100.053 45.4105 92.6841 58.0421 91.6315 58.4631C90.5789 58.8842 82.347 58.2065 76.2631 58.0421C75.9303 58.0331 81.9122 55.9368 81.3157 54.2526Z" fill="#2A88EC"/>
<path d="M61.1578 39.7263C59.3157 41.2831 51.4209 53.8315 51.4209 53.8315L64.263 61.2L74.3683 44.5684C74.3683 44.5684 68.8946 39.7262 67.2631 38.8842C65.6315 38.0421 62.9998 38.1694 61.1578 39.7263Z" fill="#2A88EC"/>
</svg>
