<svg width="150" height="150" viewBox="0 0 150 150" fill="none" xmlns="http://www.w3.org/2000/svg">
<rect x="10" y="20" width="130" height="130" rx="38" fill="#2A88EC"/>
<path fill-rule="evenodd" clip-rule="evenodd" d="M52.9966 121.958L49.8615 76.6953C49.7941 75.7217 50.5657 74.8947 51.5417 74.8947H97.4134C98.3865 74.8947 99.1571 75.717 99.094 76.6881L96.1549 121.951C96.0973 122.837 95.362 123.526 94.4742 123.526H54.6768C53.7918 123.526 53.0578 122.841 52.9966 121.958ZM76.8949 80.3684C76.8949 79.0894 75.8581 78.0526 74.5791 78.0526C73.3001 78.0526 72.2633 79.0894 72.2633 80.3684V117.421C72.2633 118.7 73.3001 119.737 74.5791 119.737C75.8581 119.737 76.8949 118.7 76.8949 117.421V80.3684ZM91.2047 79.3432C92.4819 79.4101 93.463 80.4998 93.3961 81.777L91.5451 117.097C91.4781 118.374 90.3885 119.355 89.1113 119.288C87.834 119.221 86.8529 118.132 86.9198 116.855L88.7709 81.5346C88.8378 80.2574 89.9275 79.2763 91.2047 79.3432ZM60.4703 81.5346C60.4034 80.2574 59.3137 79.2763 58.0365 79.3432C56.7593 79.4101 55.7782 80.4998 55.8451 81.777L57.6961 117.097C57.7631 118.374 58.8527 119.355 60.13 119.288C61.4072 119.221 62.3883 118.132 62.3214 116.855L60.4703 81.5346Z" fill="white"/>
<path d="M81.3157 64.2526C78.4526 56.1684 71.2104 48.8842 71.2104 48.6737C71.2105 48.4631 86.1578 48.6737 88.4736 49.0947C90.5789 50.1473 93.8031 57.8092 94.9999 57.9368C96.1968 58.0645 99.6315 55.4105 99.842 55.4105C100.053 55.4105 92.6841 68.0421 91.6315 68.4631C90.5789 68.8842 82.347 68.2065 76.2631 68.0421C75.9303 68.0331 81.9122 65.9368 81.3157 64.2526Z" fill="white"/>
<path d="M61.1578 49.7263C59.3157 51.2831 51.4209 63.8315 51.4209 63.8315L64.263 71.2L74.3683 54.5684C74.3683 54.5684 68.8946 49.7262 67.2631 48.8842C65.6315 48.0421 62.9998 48.1694 61.1578 49.7263Z" fill="white"/>
</svg>
