<svg width="150" height="150" viewBox="0 0 150 150" fill="none" xmlns="http://www.w3.org/2000/svg">
<rect x="14" y="14" width="122" height="122" rx="34" stroke="#00C774" stroke-width="8"/>
<path fill-rule="evenodd" clip-rule="evenodd" d="M53.4175 111.958L50.2824 66.6953C50.215 65.7217 50.9866 64.8947 51.9626 64.8947H97.8343C98.8074 64.8947 99.578 65.717 99.5149 66.6881L96.5758 111.951C96.5182 112.837 95.7829 113.526 94.8951 113.526H55.0977C54.2127 113.526 53.4787 112.841 53.4175 111.958ZM77.3158 70.3684C77.3158 69.0894 76.279 68.0526 75 68.0526C73.721 68.0526 72.6842 69.0894 72.6842 70.3684V107.421C72.6842 108.7 73.721 109.737 75 109.737C76.279 109.737 77.3158 108.7 77.3158 107.421V70.3684ZM91.6251 69.3432C92.9023 69.4101 93.8835 70.4998 93.8165 71.777L91.9655 107.097C91.8985 108.374 90.8089 109.355 89.5317 109.288C88.2544 109.221 87.2733 108.132 87.3402 106.855L89.1913 71.5346C89.2582 70.2574 90.3479 69.2763 91.6251 69.3432ZM60.8912 71.5346C60.8243 70.2574 59.7346 69.2763 58.4574 69.3432C57.1802 69.4101 56.1991 70.4998 56.266 71.777L58.117 107.097C58.184 108.374 59.2736 109.355 60.5508 109.288C61.8281 109.221 62.8092 108.132 62.7423 106.855L60.8912 71.5346Z" fill="#00C774"/>
<path d="M87.8417 45.8946C74.7047 50.6101 65.6663 60.6314 62.7891 65.0525H66.9996L69.5259 61.8947C69.5961 62.4561 71.4206 63.621 78.1575 63.7895C86.5785 64 90.1575 54.5263 92.0522 50.3158C93.568 46.9474 97.8768 43.1579 99.8417 41.6842C66.5785 33.0526 63.2101 50.9473 64.4733 56.842C68.6838 47.7895 91.4206 44.6099 87.8417 45.8946Z" fill="#00C774"/>
<mask id="path-4-inside-1_58_93" fill="white">
<path fill-rule="evenodd" clip-rule="evenodd" d="M10 102V112C10 132.987 27.0132 150 48 150H102C122.987 150 140 132.987 140 112V102C140 122.987 122.987 140 102 140H48C27.0132 140 10 122.987 10 102Z"/>
</mask>
<path d="M18 112V102H2V112H18ZM48 142C31.4315 142 18 128.569 18 112H2C2 137.405 22.5949 158 48 158V142ZM102 142H48V158H102V142ZM132 112C132 128.569 118.569 142 102 142V158C127.405 158 148 137.405 148 112H132ZM132 102V112H148V102H132ZM132 102C132 118.569 118.569 132 102 132V148C127.405 148 148 127.405 148 102H132ZM102 132H48V148H102V132ZM48 132C31.4315 132 18 118.569 18 102H2C2 127.405 22.5949 148 48 148V132Z" fill="#00C774" mask="url(#path-4-inside-1_58_93)"/>
</svg>
