<svg width="150" height="150" viewBox="0 0 150 150" fill="none" xmlns="http://www.w3.org/2000/svg">
<rect x="10" y="20" width="130" height="130" rx="38" fill="black"/>
<path d="M95.6318 61.6316C101.358 62.1368 103.211 62.0526 103.632 67.9474H75.0002V54.2632H83.8423C90.7897 55.5263 81.9476 60.7895 95.6318 61.6316Z" fill="white"/>
<path d="M54.3687 61.6316C48.6423 62.1368 46.7897 62.0526 46.3687 67.9474H75.0002V54.2632H66.1581C59.2108 55.5263 68.0529 60.7895 54.3687 61.6316Z" fill="white"/>
<path fill-rule="evenodd" clip-rule="evenodd" d="M53.6285 121.958L50.4934 76.6953C50.4259 75.7217 51.1976 74.8947 52.1735 74.8947H98.0452C99.0183 74.8947 99.7889 75.717 99.7259 76.6881L96.7867 121.951C96.7292 122.837 95.9938 123.526 95.106 123.526H55.3087C54.4237 123.526 53.6896 122.841 53.6285 121.958ZM77.5267 80.3684C77.5267 79.0894 76.4899 78.0526 75.2109 78.0526C73.932 78.0526 72.8951 79.0894 72.8951 80.3684V117.421C72.8951 118.7 73.932 119.737 75.2109 119.737C76.4899 119.737 77.5267 118.7 77.5267 117.421V80.3684ZM91.8365 79.3432C93.1138 79.4101 94.0949 80.4998 94.0279 81.777L92.1769 117.097C92.11 118.374 91.0203 119.355 89.7431 119.288C88.4659 119.221 87.4847 118.132 87.5517 116.855L89.4027 81.5346C89.4697 80.2574 90.5593 79.2763 91.8365 79.3432ZM61.1022 81.5346C61.0352 80.2574 59.9456 79.2763 58.6683 79.3432C57.3911 79.4101 56.41 80.4998 56.4769 81.777L58.328 117.097C58.3949 118.374 59.4846 119.355 60.7618 119.288C62.039 119.221 63.0201 118.132 62.9532 116.855L61.1022 81.5346Z" fill="white"/>
</svg>
