<svg width="150" height="150" viewBox="0 0 150 150" fill="none" xmlns="http://www.w3.org/2000/svg">
<rect x="14" y="14" width="122" height="122" rx="34" stroke="black" stroke-width="8"/>
<mask id="path-2-inside-1_72_740" fill="white">
<path fill-rule="evenodd" clip-rule="evenodd" d="M10 102V112C10 132.987 27.0132 150 48 150H102C122.987 150 140 132.987 140 112V102C140 122.987 122.987 140 102 140H48C27.0132 140 10 122.987 10 102Z"/>
</mask>
<path d="M18 112V102H2V112H18ZM48 142C31.4315 142 18 128.569 18 112H2C2 137.405 22.5949 158 48 158V142ZM102 142H48V158H102V142ZM132 112C132 128.569 118.569 142 102 142V158C127.405 158 148 137.405 148 112H132ZM132 102V112H148V102H132ZM132 102C132 118.569 118.569 132 102 132V148C127.405 148 148 127.405 148 102H132ZM102 132H48V148H102V132ZM48 132C31.4315 132 18 118.569 18 102H2C2 127.405 22.5949 148 48 148V132Z" fill="black" mask="url(#path-2-inside-1_72_740)"/>
<path d="M95.6318 51.6316C101.358 52.1368 103.211 52.0526 103.632 57.9474H75.0002V44.2632H83.8423C90.7897 45.5263 81.9476 50.7895 95.6318 51.6316Z" fill="black"/>
<path d="M54.3687 51.6316C48.6423 52.1368 46.7897 52.0526 46.3687 57.9474H75.0002V44.2632H66.1581C59.2108 45.5263 68.0529 50.7895 54.3687 51.6316Z" fill="black"/>
<path fill-rule="evenodd" clip-rule="evenodd" d="M53.6285 111.958L50.4934 66.6953C50.4259 65.7217 51.1976 64.8947 52.1735 64.8947H98.0452C99.0183 64.8947 99.7889 65.717 99.7259 66.6881L96.7867 111.951C96.7292 112.837 95.9938 113.526 95.106 113.526H55.3087C54.4237 113.526 53.6896 112.841 53.6285 111.958ZM77.5267 70.3684C77.5267 69.0894 76.4899 68.0526 75.2109 68.0526C73.932 68.0526 72.8951 69.0894 72.8951 70.3684V107.421C72.8951 108.7 73.932 109.737 75.2109 109.737C76.4899 109.737 77.5267 108.7 77.5267 107.421V70.3684ZM91.8365 69.3432C93.1138 69.4101 94.0949 70.4998 94.0279 71.777L92.1769 107.097C92.11 108.374 91.0203 109.355 89.7431 109.288C88.4659 109.221 87.4847 108.132 87.5517 106.855L89.4027 71.5346C89.4697 70.2574 90.5593 69.2763 91.8365 69.3432ZM61.1022 71.5346C61.0352 70.2574 59.9456 69.2763 58.6683 69.3432C57.3911 69.4101 56.41 70.4998 56.4769 71.777L58.328 107.097C58.3949 108.374 59.4846 109.355 60.7618 109.288C62.039 109.221 63.0201 108.132 62.9532 106.855L61.1022 71.5346Z" fill="black"/>
</svg>
