<svg width="150" height="150" viewBox="0 0 150 150" fill="none" xmlns="http://www.w3.org/2000/svg">
<rect x="10" y="20" width="130" height="130" rx="38" fill="#00C774"/>
<path fill-rule="evenodd" clip-rule="evenodd" d="M53.4175 121.958L50.2824 76.6953C50.215 75.7217 50.9866 74.8947 51.9626 74.8947H97.8343C98.8074 74.8947 99.578 75.717 99.5149 76.6881L96.5758 121.951C96.5182 122.837 95.7829 123.526 94.8951 123.526H55.0977C54.2127 123.526 53.4787 122.841 53.4175 121.958ZM77.3158 80.3684C77.3158 79.0894 76.279 78.0526 75 78.0526C73.721 78.0526 72.6842 79.0894 72.6842 80.3684V117.421C72.6842 118.7 73.721 119.737 75 119.737C76.279 119.737 77.3158 118.7 77.3158 117.421V80.3684ZM91.6251 79.3432C92.9023 79.4101 93.8835 80.4998 93.8165 81.777L91.9655 117.097C91.8985 118.374 90.8089 119.355 89.5317 119.288C88.2544 119.221 87.2733 118.132 87.3402 116.855L89.1913 81.5346C89.2582 80.2574 90.3479 79.2763 91.6251 79.3432ZM60.8912 81.5346C60.8243 80.2574 59.7346 79.2763 58.4574 79.3432C57.1802 79.4101 56.1991 80.4998 56.266 81.777L58.117 117.097C58.184 118.374 59.2736 119.355 60.5508 119.288C61.8281 119.221 62.8092 118.132 62.7423 116.855L60.8912 81.5346Z" fill="white"/>
<path d="M87.8417 55.8946C74.7047 60.6101 65.6663 70.6314 62.7891 75.0525H66.9996L69.5259 71.8947C69.5961 72.4561 71.4206 73.621 78.1575 73.7895C86.5785 74 90.1575 64.5263 92.0522 60.3158C93.568 56.9474 97.8768 53.1579 99.8417 51.6842C66.5785 43.0526 63.2101 60.9473 64.4733 66.842C68.6838 57.7895 91.4206 54.6099 87.8417 55.8946Z" fill="white"/>
</svg>
