<svg width="190" height="190" viewBox="0 0 190 190" fill="none" xmlns="http://www.w3.org/2000/svg">
<path d="M35.2962 75.2764L42.7421 182.776C42.8873 184.873 44.6307 186.5 46.7325 186.5H141.251C143.36 186.5 145.106 184.863 145.243 182.759L152.223 75.2592C152.373 72.9529 150.543 71 148.232 71H39.2866C36.9687 71 35.136 72.964 35.2962 75.2764Z" fill="white" stroke="white" stroke-width="5"/>
<path d="M94 84V172" stroke="#2A88EC" stroke-width="11" stroke-linecap="round"/>
<path d="M133.198 87.0576L128.802 170.942" stroke="#2A88EC" stroke-width="11" stroke-linecap="round"/>
<path d="M55 87.0576L59.3962 170.942" stroke="#2A88EC" stroke-width="11" stroke-linecap="round"/>
<path d="M110 45.7249C103.2 26.5249 85.9999 9.225 86 8.72493C86.0001 8.22485 121.5 8.72494 127 9.72493C132 12.2249 139.657 30.4217 142.5 30.7249C145.342 31.0281 153.5 24.7249 154 24.7249C154.5 24.7249 137 54.7249 134.5 55.7249C132 56.7249 112.449 55.1154 98 54.7249C97.2097 54.7035 111.417 49.7249 110 45.7249Z" fill="white"/>
<path d="M62.1251 11.2249C57.7502 14.9225 39 44.7249 39 44.7249L69.5 62.225L93.5 22.725C93.5 22.725 80.5 11.2249 76.6251 9.22493C72.7502 7.22501 66.5 7.52738 62.1251 11.2249Z" fill="white"/>
</svg>
