<svg width="123" height="181" viewBox="0 0 123 181" fill="none" xmlns="http://www.w3.org/2000/svg">
<path d="M3.2962 67.2764L10.7421 174.776C10.8873 176.873 12.6307 178.5 14.7325 178.5H109.251C111.36 178.5 113.106 176.863 113.243 174.759L120.223 67.2592C120.373 64.9529 118.543 63 116.232 63H7.28664C4.96869 63 3.13603 64.964 3.2962 67.2764Z" fill="white" stroke="white" stroke-width="5"/>
<path d="M62 76V164" stroke="#2A88EC" stroke-width="11" stroke-linecap="round"/>
<path d="M101.198 79.0576L96.802 162.942" stroke="#2A88EC" stroke-width="11" stroke-linecap="round"/>
<path d="M23 79.0576L27.3962 162.942" stroke="#2A88EC" stroke-width="11" stroke-linecap="round"/>
<path d="M78 37.7249C71.2 18.5249 53.9999 1.225 54 0.724925C54.0001 0.224854 89.5 0.724936 95 1.72493C100 4.22493 107.657 22.4217 110.5 22.7249C113.342 23.0281 121.5 16.7249 122 16.7249C122.5 16.7249 105 46.7249 102.5 47.7249C100 48.7249 80.4494 47.1154 66 46.7249C65.2097 46.7035 79.4166 41.7249 78 37.7249Z" fill="white"/>
<path d="M30.1251 3.22493C25.7502 6.92249 7 36.7249 7 36.7249L37.5 54.225L61.5 14.725C61.5 14.725 48.5 3.22485 44.6251 1.22493C40.7502 -0.774989 34.5 -0.472624 30.1251 3.22493Z" fill="white"/>
</svg>
