<svg width="190" height="190" viewBox="0 0 190 190" fill="none" xmlns="http://www.w3.org/2000/svg">
<path d="M144 39.5C157.6 40.7 162 40.5 163 54.5H95V22H116C132.5 25 111.5 37.5 144 39.5Z" fill="white"/>
<path d="M46 39.5C32.4 40.7 28 40.5 27 54.5H95V22H74C57.5 25 78.5 37.5 46 39.5Z" fill="white"/>
<path d="M36.7962 75.2763L44.2421 182.776C44.3873 184.873 46.1307 186.5 48.2325 186.5H142.751C144.86 186.5 146.606 184.863 146.743 182.759L153.723 75.2591C153.873 72.9529 152.043 70.9999 149.732 70.9999H40.7866C38.4687 70.9999 36.636 72.9639 36.7962 75.2763Z" fill="white" stroke="white" stroke-width="5"/>
<path d="M95.5 83.9999V172" stroke="black" stroke-width="11" stroke-linecap="round"/>
<path d="M134.698 87.0576L130.302 170.942" stroke="black" stroke-width="11" stroke-linecap="round"/>
<path d="M56.5 87.0576L60.8962 170.942" stroke="black" stroke-width="11" stroke-linecap="round"/>
</svg>
