<svg width="320" height="140" viewBox="0 0 320 140" fill="none" xmlns="http://www.w3.org/2000/svg">
<path d="M8.74997 100V68.7232C8.74997 64.6912 9.90197 61.5232 12.206 59.2192C14.51 56.9152 17.7068 55.7632 21.7964 55.7632H34.67V66.6496H25.0796C24.2732 66.6496 23.582 66.9376 23.006 67.5136C22.43 68.032 22.142 68.7232 22.142 69.5872V100H8.74997ZM63.807 100C58.7958 100 54.3894 99.0784 50.5878 97.2352C46.7862 95.3344 43.8198 92.7424 41.6886 89.4592C39.615 86.1184 38.5782 82.2592 38.5782 77.8816C38.5782 73.0432 39.5862 68.896 41.6022 65.44C43.6182 61.984 46.2966 59.3344 49.6374 57.4912C53.0358 55.5904 56.7798 54.64 60.8694 54.64C65.535 54.64 69.423 55.6192 72.5334 57.5776C75.7014 59.536 78.0918 62.2144 79.7046 65.6128C81.3174 68.9536 82.1238 72.784 82.1238 77.104C82.1238 77.8528 82.0662 78.7456 81.951 79.7824C81.8934 80.7616 81.807 81.5392 81.6918 82.1152H52.6614C53.007 83.6128 53.6694 84.88 54.6486 85.9168C55.6278 86.9536 56.8662 87.7312 58.3638 88.2496C59.8614 88.7104 61.5318 88.9408 63.375 88.9408H76.9398V100H63.807ZM52.3158 73.7344H69.1638C69.0486 72.8128 68.8758 71.92 68.6454 71.056C68.415 70.192 68.0406 69.4432 67.5222 68.8096C67.0614 68.1184 66.5142 67.5424 65.8806 67.0816C65.247 66.5632 64.4982 66.16 63.6342 65.872C62.8278 65.584 61.9062 65.44 60.8694 65.44C59.5446 65.44 58.3638 65.6704 57.327 66.1312C56.2902 66.592 55.4262 67.2256 54.735 68.032C54.0438 68.7808 53.4966 69.6736 53.0934 70.7104C52.7478 71.6896 52.4886 72.6976 52.3158 73.7344Z" fill="#2A88EC"/>
<path d="M153.522 54.64C157.266 54.64 160.578 55.2448 163.458 56.4544C166.396 57.6064 168.872 59.2768 170.888 61.4656C172.962 63.5968 174.546 66.1312 175.64 69.0688C176.735 71.9488 177.282 75.1456 177.282 78.6592C177.282 83.0368 176.36 86.9248 174.517 90.3232C172.732 93.664 170.255 96.2848 167.087 98.1856C163.919 100.086 160.232 101.037 156.028 101.037C154.242 101.037 152.543 100.806 150.93 100.346C149.375 99.8848 147.935 99.2224 146.61 98.3584C145.343 97.4944 144.277 96.4288 143.413 95.1616H143.154V118.749H129.762V78.6592C129.762 73.7632 130.741 69.5296 132.7 65.9584C134.658 62.3872 137.423 59.6224 140.994 57.664C144.565 55.648 148.741 54.64 153.522 54.64ZM153.522 66.2176C151.448 66.2176 149.634 66.736 148.079 67.7728C146.581 68.752 145.429 70.1344 144.623 71.92C143.816 73.648 143.413 75.6064 143.413 77.7952C143.413 79.984 143.816 81.9424 144.623 83.6704C145.429 85.3984 146.581 86.7808 148.079 87.8176C149.634 88.7968 151.448 89.2864 153.522 89.2864C155.596 89.2864 157.381 88.7968 158.879 87.8176C160.376 86.7808 161.528 85.3984 162.335 83.6704C163.199 81.9424 163.631 79.984 163.631 77.7952C163.631 75.6064 163.199 73.648 162.335 71.92C161.528 70.1344 160.376 68.752 158.879 67.7728C157.381 66.736 155.596 66.2176 153.522 66.2176ZM207.15 101.037C202.6 101.037 198.51 100.029 194.881 98.0128C191.253 95.9968 188.373 93.232 186.241 89.7184C184.168 86.2048 183.131 82.2592 183.131 77.8816C183.131 73.4464 184.168 69.5008 186.241 66.0448C188.373 62.5312 191.253 59.7664 194.881 57.7504C198.51 55.6768 202.6 54.64 207.15 54.64C211.701 54.64 215.761 55.6768 219.333 57.7504C222.961 59.7664 225.813 62.5312 227.886 66.0448C230.017 69.5008 231.083 73.4464 231.083 77.8816C231.083 82.2592 230.017 86.2048 227.886 89.7184C225.813 93.232 222.961 95.9968 219.333 98.0128C215.704 100.029 211.643 101.037 207.15 101.037ZM207.15 89.3728C209.281 89.3728 211.125 88.8544 212.68 87.8176C214.235 86.7808 215.445 85.3984 216.309 83.6704C217.173 81.9424 217.605 79.984 217.605 77.7952C217.605 75.664 217.173 73.7344 216.309 72.0064C215.445 70.2784 214.235 68.896 212.68 67.8592C211.125 66.8224 209.281 66.304 207.15 66.304C205.019 66.304 203.147 66.8224 201.534 67.8592C199.979 68.896 198.769 70.2784 197.905 72.0064C197.041 73.7344 196.609 75.664 196.609 77.7952C196.609 79.984 197.041 81.9424 197.905 83.6704C198.769 85.3984 199.979 86.7808 201.534 87.8176C203.147 88.8544 205.019 89.3728 207.15 89.3728ZM239.122 100V89.3728H260.463C261.039 89.3728 261.557 89.2576 262.018 89.0272C262.479 88.7392 262.853 88.3648 263.141 87.904C263.429 87.4432 263.573 86.9536 263.573 86.4352C263.573 85.8592 263.429 85.3408 263.141 84.88C262.853 84.4192 262.479 84.0736 262.018 83.8432C261.557 83.5552 261.039 83.4112 260.463 83.4112H252.687C249.807 83.4112 247.186 82.9504 244.825 82.0288C242.521 81.0496 240.677 79.552 239.295 77.536C237.97 75.4624 237.308 72.784 237.308 69.5008C237.308 66.9664 237.913 64.6624 239.122 62.5888C240.389 60.5152 242.089 58.8448 244.22 57.5776C246.409 56.3104 248.799 55.6768 251.391 55.6768H272.732V66.3904H253.465C252.658 66.3904 251.967 66.6496 251.391 67.168C250.873 67.6864 250.613 68.32 250.613 69.0688C250.613 69.8752 250.873 70.5664 251.391 71.1424C251.967 71.6608 252.658 71.92 253.465 71.92H261.068C264.293 71.92 267.058 72.4096 269.362 73.3888C271.724 74.3104 273.538 75.808 274.805 77.8816C276.13 79.9552 276.793 82.6336 276.793 85.9168C276.793 88.5088 276.13 90.8704 274.805 93.0016C273.538 95.1328 271.81 96.832 269.621 98.0992C267.49 99.3664 265.071 100 262.364 100H239.122ZM299.829 100C295.739 100 292.543 98.848 290.239 96.544C287.935 94.1824 286.783 91.0144 286.783 87.04V44.8768H300.261V86.2624C300.261 86.9536 300.491 87.5584 300.952 88.0768C301.471 88.5376 302.075 88.768 302.767 88.768H312.443V100H299.829ZM279.525 66.6496V55.6768H312.443V66.6496H279.525Z" fill="#00C774"/>
<path opacity="1" d="M113.474 62.2L97.6001 94.5115" stroke="black" stroke-width="10.8" stroke-linecap="round"/>
</svg>
